<svg width="17" height="17" version="1.1" viewBox="0 0 17 17" xml:space="preserve" xmlns="http://www.w3.org/2000/svg">
    
    <path d="m5.1555 1.5v0.74074h-1.521v0.74074h-0.7605v0.74074h-0.7605v1.4815h-0.7605v2.963h0.7605v1.4815h0.7605v0.74074h0.7605v0.74074h1.521v0.74074h3.042v-0.74074h1.521v-0.0029h0.7605v0.74074h0.7605v0.74364h0.7605v0.74074h0.7605v0.74074h0.7605v0.74077h0.7605v0.74074h0.7605v-0.74074h0.7605v-0.74074h-0.7605v-0.74074h-0.7605v-0.74074h-0.7605v-0.74074h-0.7605v-0.74076h-0.7605v-0.74074h-0.7605v-2.2222h0.7605v-2.963h-0.7605v-1.4815h-0.7605v-0.74074h-0.7605v-0.74074h-1.521v-0.74074zm-0.7605 1.4815h4.563v0.74074h0.7605v0.74074h0.7605v4.4444h-0.7605v0.74074h-0.7605v0.74074h-4.563v-0.74074h-0.7605v-0.74074h-0.7605v-4.4444h0.7605v-0.74074h0.7605zm2.2815 0.74074v0.74074h1.521v-0.74074zm1.521 0.74074v0.74074h0.7605v-0.74074zm0.7605 0.74074v2.2222h0.7605v-2.2222z" fill="currentColor" stroke-width="1.5011"/></svg>
