<svg width="17" height="17" version="1.1" viewBox="0 0 17 17" xml:space="preserve" xmlns="http://www.w3.org/2000/svg">
    
    <path d="m1 1v14.167h0.83333v-0.83333h0.83333v-0.83333h0.83333v-0.83333h0.83333v-0.83333h0.83333v-0.83333h0.83333v-0.83333h0.83333v-0.83333h1.6667v-0.83333h1.6667v-0.83333h1.6667v-0.83333h1.6667v-0.83333h1.6667v-0.83333h0.83333v-4.1667h-0.83333v0.83333h-0.83333v0.83333h-0.83333v0.83333h-0.83333v0.83333h-0.83333v0.83333h-6.6667v-0.83333h-0.83333v-0.83333h-0.83333v-0.83333h-0.83333v-0.83333h-0.83333v-0.83333zm14.167 5.8333v0.83333h-0.83333v0.83333h-0.83333v0.83333h-1.6667v0.83333h-0.83333v0.83333h-1.6667v0.83333h-1.6667v0.83333h-0.83333v0.83333h-1.6667v0.83333h-1.6667v0.83333h-0.83333v0.83333h12.5v-0.83333h0.83333v-8.3333z" fill="currentColor" stroke-width="1.6667"/></svg>
