<svg width="15" height="15" version="1.1" viewBox="0 0 15 15" xmlns="http://www.w3.org/2000/svg">
 <g transform="translate(-1,-1)">
  <path d="m16 1v2.5h-0.83333v0.83333h-0.83333v0.83333h-1.6667v0.83333h-0.83333v0.83333h-0.83333v0.83333h2.5v-0.83333h2.5v1.6667h-0.83333v0.83333h-4.1667v-0.83333h-1.6667v0.83333h-0.83333v0.83333h1.6667v0.83333h2.5v0.83333h0.83333v0.83333h-4.1667v-0.83333h-0.83333v-0.83333h-1.6667v0.83333h-0.83333v0.83333h-0.83333v0.83333h2.5v0.83333h0.83333v0.83333h0.83333v0.83333h-2.5v-0.83333h-0.83333v-0.83333h-2.5v0.83333h-0.83333v0.83333h-0.83333v-0.83333h0.83333v-3.3333h-0.83333v-0.83333h-0.83333v-2.5h0.83333v0.83333h0.83333v0.83333h0.83333v2.5h0.83333v-0.83333h0.83333v-0.83333h0.83333v-1.6667h-1.6667v-1.6667h-0.83333v-2.5h0.83333v-0.83333h0.83333v2.5h0.83333v1.6667h0.83333v0.83333h0.83333v-0.83333h0.83333v-2.5h-0.83333v-0.83333h-0.83333v-2.5h0.83333v-0.83333h0.83333v1.6667h0.83333v3.3333h0.83333v-0.83333h0.83333v-1.6667h0.83333v-1.6667h0.83333v-0.83333h1.6667v-0.83333z" fill="currentColor" stroke-width="1.6667"/>
 </g>
</svg>
