<svg width="17" height="17" version="1.1" viewBox="0 0 17 17" xmlns="http://www.w3.org/2000/svg">
 <path d="m8.3929 0.71429v0.7381h-0.7381v2.2143h0.7381v0.7381h0.7381v0.7381h-3.6905v0.7381h-1.4762v0.7381h-0.7381v0.7381h-0.7381v1.4762h-0.7381v3.6905h0.7381v1.4762h0.7381v0.7381h0.7381v0.7381h1.4762v0.7381h6.6429v-0.7381h-3.6905v-0.7381h0.7381v-0.7381h0.7381v-0.7381h0.7381v-1.4762h-0.7381v-0.7381h-0.7381v-0.7381h-1.4762v-0.7381h0.7381v-0.7381h0.7381v0.7381h0.7381v0.7381h0.7381v-1.4762h-0.7381v-1.4762h1.4762v0.7381h1.4762v0.7381h1.4762v-2.2143h-0.7381v-1.4762h-0.7381v-0.7381h-0.7381v-0.7381h-0.7381v-2.2143h-0.7381v-0.7381zm3.6905 14.762h1.4762v-0.7381h-1.4762zm1.4762-0.7381h0.7381v-0.7381h-0.7381zm0.7381-0.7381h0.7381v-1.4762h-0.7381zm0-1.4762v-0.7381h-0.7381v0.7381zm-0.7381-0.7381v-0.7381h-1.4762v0.7381zm-2.2143-6.6429h0.7381v0.7381h0.7381v0.7381h-0.7381v-0.7381h-0.7381z" fill="currentColor" stroke-width="1.4762"/>
</svg>
