<svg width="17" height="17" version="1.1" viewBox="0 0 17 17" xmlns="http://www.w3.org/2000/svg">
 <g fill="currentColor" stroke-width="1.6316">
  <path d="m4.352 7.1579h-1.6316v0.81579h-0.81579v2.4474h0.81579v0.81579h0.81579v-0.81579h0.81579z"/>
  <path d="m3.5362 6.3421h-0.81579v-0.81579h0.81579z"/>
  <path d="m5.9836 7.1579v-0.81579h-0.81579v-3.2632h0.81579v-0.81579h0.81579v0.81579h0.81579v3.2632h-0.81579v0.81579z"/>
  <path d="m5.9836 1.4474v-0.81579h0.81579v0.81579z"/>
  <path d="m12.51 7.1579h1.6316v0.81579h0.81579v2.4474h-0.81579v0.81579h-0.81579v-0.81579h-0.81579z"/>
  <path d="m13.326 6.3421h0.81579v-0.81579h-0.81579z"/>
  <path d="m10.878 7.1579v-0.81579h0.81579v-3.2632h-0.81579v-0.81579h-0.81579v0.81579h-0.81579v3.2632h0.81579v0.81579z"/>
  <path d="m10.878 1.4474v-0.81579h-0.81579v0.81579z"/>
  <path d="m7.6151 7.9737h1.6316v0.81579h0.81579v1.6316h1.6316v0.81579h0.81579v0.81579h0.81579v3.2632h-0.81579v0.81579h-1.6316v-1.6316h-0.81579v0.81579h-0.81579v0.81579h-1.6316v-0.81579h-0.81579v-0.81579h-0.81579v1.6316h-1.6316v-0.81579h-0.81579v-3.2632h0.81579v-0.81579h0.81579v-0.81579h1.6316v-1.6316h0.81579z"/>
 </g>
</svg>
