<svg width="17" height="17" version="1.1" viewBox="0 0 17 17" xmlns="http://www.w3.org/2000/svg">
 <g transform="matrix(1.6,0,0,1.6,-5.1,-5.8)" fill="currentColor">
  <path d="m7 4h0.5v0.5h1v0.5h0.5v0.5h0.5v0.5h0.5v0.5h0.5v0.5h0.5v1h0.5v0.5h0.5v1h0.5v2h-0.5v-1h-0.5v-0.5h-0.5v-1h-0.5v-1h-0.5v-0.5h-0.5v-0.5h-0.5v-1h-0.5v-0.5h-0.5v-0.5h-0.5v-0.5h-0.5z"/>
  <path d="m13 11.5v0.5h-0.5v-0.5z"/>
  <path d="m5 4.5h0.5v0.5h0.5v0.5h0.5v0.5h0.5v0.5h0.5v0.5h0.5v0.5h0.5v0.5h0.5v1h0.5v0.5h0.5v1h0.5v1h0.5v1.5h0.5v0.5h-0.5v-0.5h-0.5v-0.5h-0.5v-0.5h-0.5v-1h-0.5v-0.5h-0.5v-1h-0.5v-0.5h-0.5v-0.5h-0.5v-1h-0.5v-0.5h-0.5v-1h-0.5v-1h-0.5z"/>
  <path d="m4 7h0.5v0.5h0.5v0.5h0.5v0.5h0.5v0.5h0.5v0.5h0.5v1h0.5v1h0.5v1h0.5v1h0.5v0.5h-0.5v-0.5h-0.5v-0.5h-0.5v-0.5h-0.5v-1h-0.5v-0.5h-0.5v-1h-0.5v-1h-0.5v-0.5h-0.5v-1h-0.5z"/>
 </g>
</svg>
