<svg width="17" height="17" version="1.1" viewBox="0 0 17 17" xml:space="preserve" xmlns="http://www.w3.org/2000/svg">
    
    <path d="m7.7143 1.4286v1.5714h1.5714v-1.5714zm1.5714 1.5714v1.5714h1.5714v-1.5714zm1.5714 1.5714v1.5714h1.5714v-1.5714zm1.5714 0h1.5714v-1.5714h-1.5714zm0 1.5714v1.5714h1.5714v-1.5714zm1.5714 1.5714v1.5714h1.5714v-1.5714zm0 1.5714h-1.5714v1.5714h1.5714zm-1.5714 1.5714h-1.5714v1.5714h1.5714zm0 1.5714v1.5714h1.5714v-1.5714zm-1.5714 0h-1.5714v1.5714h1.5714zm-1.5714 1.5714h-1.5714v1.5714h1.5714zm-1.5714 0v-1.5714h-1.5714v1.5714zm-1.5714-1.5714v-1.5714h-1.5714v1.5714zm-1.5714 0h-1.5714v1.5714h1.5714zm0-1.5714v-1.5714h-1.5714v1.5714zm-1.5714-1.5714v-1.5714h-1.5714v1.5714zm0-1.5714h1.5714v-1.5714h-1.5714zm1.5714-1.5714h1.5714v-1.5714h-1.5714zm0-1.5714v-1.5714h-1.5714v1.5714zm1.5714 0h1.5714v-1.5714h-1.5714zm1.5714 0v3.1429h1.5714v-3.1429zm1.5714 3.1429v1.5714h3.1429v-1.5714zm0 1.5714h-1.5714v3.1429h1.5714zm-1.5714 0v-1.5714h-3.1429v1.5714z" fill="currentColor" stroke-width="1.5714"/></svg>
