<svg width="17" height="17" version="1.1" viewBox="0 0 17 17" xml:space="preserve" xmlns="http://www.w3.org/2000/svg">
    
    <g><path d="m7.8125 0.9375v2.75h1.375v-2.75zm-5.5 1.375v1.375h1.375v-1.375zm1.375 1.375v1.375h1.375v-1.375zm9.625-1.375v1.375h1.375v-1.375zm0 1.375h-1.375v1.375h1.375zm-6.875 1.375v1.375h-1.375v4.125h1.375v1.375h4.125v-1.375h1.375v-4.125h-1.375v-1.375zm-5.5 2.75v1.375h2.75v-1.375zm12.375 0v1.375h2.75v-1.375zm-9.625 4.125v1.375h1.375v-1.375zm0 1.375h-1.375v1.375h1.375zm8.25-1.375v1.375h1.375v-1.375zm1.375 1.375v1.375h1.375v-1.375zm-5.5 0v2.75h1.375v-2.75z" stroke-width="1.375"/>
        <path d="m7.7143 1.4286v1.5714h1.5714v-1.5714zm1.5714 1.5714v1.5714h1.5714v-1.5714zm1.5714 1.5714v1.5714h1.5714v-1.5714zm1.5714 0h1.5714v-1.5714h-1.5714zm0 1.5714v1.5714h1.5714v-1.5714zm1.5714 1.5714v1.5714h1.5714v-1.5714zm0 1.5714h-1.5714v1.5714h1.5714zm-1.5714 1.5714h-1.5714v1.5714h1.5714zm0 1.5714v1.5714h1.5714v-1.5714zm-1.5714 0h-1.5714v1.5714h1.5714zm-1.5714 1.5714h-1.5714v1.5714h1.5714zm-1.5714 0v-1.5714h-1.5714v1.5714zm-1.5714-1.5714v-1.5714h-1.5714v1.5714zm-1.5714 0h-1.5714v1.5714h1.5714zm0-1.5714v-1.5714h-1.5714v1.5714zm-1.5714-1.5714v-1.5714h-1.5714v1.5714zm0-1.5714h1.5714v-1.5714h-1.5714zm1.5714-1.5714h1.5714v-1.5714h-1.5714zm0-1.5714v-1.5714h-1.5714v1.5714zm1.5714 0h1.5714v-1.5714h-1.5714zm1.5714 0v3.1429h1.5714v-3.1429zm1.5714 3.1429v1.5714h3.1429v-1.5714zm0 1.5714h-1.5714v3.1429h1.5714zm-1.5714 0v-1.5714h-3.1429v1.5714z" display="none" fill="currentColor" stroke-width="1.5714"/></g></svg>
